<svg width="30" height="37" viewBox="0 0 30 37" fill="none" xmlns="http://www.w3.org/2000/svg">
<path d="M1.06043 15.2028C0.474647 14.617 0.474647 13.6673 1.06043 13.0815L13.0812 1.06068C13.667 0.474891 14.6168 0.474892 15.2026 1.06068C15.7884 1.64646 15.7884 2.59621 15.2026 3.182L3.18175 15.2028C2.59597 15.7886 1.64622 15.7886 1.06043 15.2028Z" fill="#101010"/>
<path d="M8.13123 22.2739C7.54545 21.6881 7.54545 20.7384 8.13123 20.1526L26.4703 1.81347C27.0561 1.22768 28.0059 1.22768 28.5917 1.81347C29.1774 2.39926 29.1774 3.349 28.5917 3.93479L10.2526 22.2739C9.66677 22.8597 8.71702 22.8597 8.13123 22.2739Z" fill="#101010"/>
<path d="M8.47059 36.0769C7.8848 35.4911 7.8848 34.5413 8.47059 33.9555L27.2233 15.2028C27.8091 14.617 28.7588 14.617 29.3446 15.2028C29.9304 15.7886 29.9304 16.7384 29.3446 17.3242L10.5919 36.0769C10.0061 36.6627 9.05638 36.6627 8.47059 36.0769Z" fill="#101010"/>
</svg>
